<svg height="96" width="96" xmlns="http://www.w3.org/2000/svg" xmlns:xlink="http://www.w3.org/1999/xlink"><linearGradient id="a"><stop offset="0" stop-color="#fefefe"/><stop offset="1" stop-color="#fefefe" stop-opacity="0"/></linearGradient><linearGradient id="b" gradientUnits="userSpaceOnUse" x1="36.357143" x2="36.357143" xlink:href="#a" y1="6" y2="63.893143"/><radialGradient id="c" cx="48" cy="90.171875" gradientTransform="matrix(1.1573129 0 0 .99590774 -7.551021 .197132)" gradientUnits="userSpaceOnUse" r="42" xlink:href="#a"/><linearGradient id="d" gradientTransform="matrix(1.0058652 0 0 .994169 100 0)" gradientUnits="userSpaceOnUse" x1="45.447727" x2="45.447727" y1="92.539597" y2="7.01654"><stop offset="0"/><stop offset="1" stop-opacity=".588235"/></linearGradient><linearGradient id="e" gradientTransform="matrix(1.0238095 0 0 1.0119048 -1.142857 -98.071429)" gradientUnits="userSpaceOnUse" x1="32.251034" x2="32.251034" xlink:href="#d" y1="6.131708" y2="90.238609"/><linearGradient id="f" gradientTransform="translate(0 -97)" gradientUnits="userSpaceOnUse" x1="32.251034" x2="32.251034" xlink:href="#d" y1="6.131708" y2="90.238609"/><radialGradient id="g" cx="65.481331" cy="28.996017" gradientTransform="matrix(-.0145258 -1.9505848 1.8990894 -.01414231 -30.699206 223.06911)" gradientUnits="userSpaceOnUse" r="42"><stop offset="0" stop-color="#fd5"/><stop offset=".1" stop-color="#fd5"/><stop offset=".5" stop-color="#ff543e"/><stop offset="1" stop-color="#c837ab"/></radialGradient><radialGradient id="h" cx="77.364143" cy="15.471911" gradientTransform="matrix(.15443586 .99633347 -3.9584279 .61357298 41.13711 -77.181532)" gradientUnits="userSpaceOnUse" r="42"><stop offset="0" stop-color="#3771c8"/><stop offset=".128" stop-color="#3771c8"/><stop offset="1" stop-color="#60f" stop-opacity="0"/></radialGradient><g><g fill="url(#e)"><path d="m12-95.03125c-5.5110903 0-10.03125 4.52016-10.03125 10.03125v71c0 5.5110902 4.5201598 10.03125 10.03125 10.03125h72c5.51109 0 10.03125-4.5201597 10.03125-10.03125v-71c0-5.51109-4.52016-10.03125-10.03125-10.03125z" opacity=".08" transform="scale(1 -1)"/><path d="m12-94.03125c-4.971633 0-9.03125 4.059617-9.03125 9.03125v71c0 4.9716329 4.0596171 9.03125 9.03125 9.03125h72c4.971633 0 9.03125-4.059617 9.03125-9.03125v-71c0-4.971633-4.059617-9.03125-9.03125-9.03125z" opacity=".1" transform="scale(1 -1)"/><path d="m12-93c-4.4091333 0-8 3.590867-8 8v71c0 4.4091333 3.5908667 8 8 8h72c4.409133 0 8-3.5908667 8-8v-71c0-4.409133-3.590867-8-8-8z" opacity=".2" transform="scale(1 -1)"/><rect height="85" opacity=".3" rx="7" transform="scale(1 -1)" width="86" x="5" y="-92"/></g><rect fill="url(#f)" height="84" opacity=".45" rx="6" transform="scale(1 -1)" width="84" x="6" y="-91"/></g><g><path d="m12 6c-3.324 0-6 2.676-6 6v72c0 3.324 2.676 6 6 6h72c3.324 0 6-2.676 6-6v-72c0-3.324-2.676-6-6-6z" fill="url(#g)"/><path d="m12 90c-3.324 0-6-2.676-6-6v-2-68-2c0-.334721.04135-.6507.09375-.96875.0487-.295596.09704-.596915.1875-.875.0099-.03038.02089-.0636.03125-.09375.09886-.287771.23488-.547452.375-.8125.144592-.273507.315616-.535615.5-.78125s.373776-.473472.59375-.6875c.439947-.428056.94291-.814526 1.5-1.09375.278545-.139612.573473-.246947.875-.34375-.256202.100222-.486711.236272-.71875.375-.0074.0044-.02387-.0045-.03125 0-.03193.0193-.06229.04251-.09375.0625-.120395.0767-.231023.163513-.34375.25-.106173.0808-.213281.161112-.3125.25-.17793.161433-.34746.345388-.5.53125-.107579.130255-.218394.265285-.3125.40625-.02509.03838-.03845.08587-.0625.125-.06476.103032-.130228.204517-.1875.3125-.101008.194706-.205675.415701-.28125.625-.008.02181-.02359.04055-.03125.0625-.03182.09195-.0358.186831-.0625.28125-.03033.106618-.07039.203031-.09375.3125-.072879.341512-.125.698205-.125 1.0625v2 68 2c0 2.781848 2.218152 5 5 5h2 68 2c2.781848 0 5-2.218152 5-5v-2-68-2c0-.364295-.05212-.720988-.125-1.0625-.04415-.206893-.08838-.397658-.15625-.59375-.0077-.02195-.0233-.04069-.03125-.0625-.06274-.173739-.138383-.367449-.21875-.53125-.04158-.0828-.07904-.169954-.125-.25-.0546-.09721-.126774-.18835-.1875-.28125-.09411-.140965-.204921-.275995-.3125-.40625-.143174-.17445-.303141-.346998-.46875-.5-.01117-.0102-.01998-.02115-.03125-.03125-.138386-.125556-.285091-.234436-.4375-.34375-.102571-.07315-.204318-.153364-.3125-.21875-.0074-.0045-.02384.0044-.03125 0-.232039-.138728-.462548-.274778-.71875-.375.301527.0968.596455.204138.875.34375.55709.279224 1.060053.665694 1.5 1.09375.219973.214028.409366.441865.59375.6875s.355408.507743.5.78125c.14012.265048.276135.524729.375.8125.01041.03078.02133.06274.03125.09375.09046.278085.1388.579404.1875.875.0524.31805.09375.634029.09375.96875v2 68 2c0 3.324-2.676 6-6 6z" fill="url(#c)" opacity=".5"/><path d="m12 6c-3.324 0-6 2.676-6 6v72c0 3.324 2.676 6 6 6h72c3.324 0 6-2.676 6-6v-72c0-3.324-2.676-6-6-6z" fill="url(#h)"/><path d="m12 6c-3.324 0-6 2.676-6 6v2 68 2c0 .334721.04135.6507.09375.96875.0487.295596.09704.596915.1875.875.00988.03038.020892.0636.03125.09375.098865.287771.2348802.547452.375.8125.1445918.273507.3156161.535615.5.78125s.3737765.473472.59375.6875c.439947.428056.94291.814526 1.5 1.09375.278545.139612.5734731.246947.875.34375-.2562018-.100222-.4867109-.236272-.71875-.375-.00741-.0044-.023866.0045-.03125 0-.031933-.0193-.062293-.04251-.09375-.0625-.120395-.0767-.2310226-.163513-.34375-.25-.1061728-.0808-.2132809-.161112-.3125-.25-.1779299-.161433-.3474596-.345388-.5-.53125-.1075789-.130255-.2183939-.265285-.3125-.40625-.025089-.03838-.038446-.08587-.0625-.125-.064763-.103032-.1302275-.204517-.1875-.3125-.1010083-.194706-.2056748-.415701-.28125-.625-.00796-.02181-.023589-.04055-.03125-.0625-.0318251-.09195-.0358045-.186831-.0625-.28125-.0303323-.106618-.0703894-.203031-.09375-.3125-.0728786-.341512-.125-.698205-.125-1.0625v-2-68-2c0-2.781848 2.2181517-5 5-5h2 68 2c2.781848 0 5 2.218152 5 5v2 68 2c0 .364295-.05212.720988-.125 1.0625-.04415.206893-.08838.397658-.15625.59375-.0077.02195-.0233.04069-.03125.0625-.06274.173739-.138383.367449-.21875.53125-.04158.0828-.07904.169954-.125.25-.0546.09721-.126774.18835-.1875.28125-.09411.140965-.204921.275995-.3125.40625-.143174.17445-.303141.346998-.46875.5-.01117.0102-.01998.02115-.03125.03125-.138386.125556-.285091.234436-.4375.34375-.102571.07315-.204318.153364-.3125.21875-.0074.0045-.02384-.0044-.03125 0-.232039.138728-.462548.274778-.71875.375.301527-.0968.596455-.204138.875-.34375.55709-.279224 1.060053-.665694 1.5-1.09375.219973-.214028.409366-.441865.59375-.6875s.355408-.507743.5-.78125c.14012-.265048.276135-.524729.375-.8125.01041-.03078.02133-.06274.03125-.09375.09046-.278085.1388-.579404.1875-.875.0524-.31805.09375-.634029.09375-.96875v-2-68-2c0-3.324-2.676-6-6-6z" fill="url(#b)" opacity=".3"/><path d="m47.482999 16.998667c-8.690756 0-9.781435.038-13.194803.193336-3.406702.156001-5.73206.69534-7.766747 1.486681-2.104689.817343-3.890041 1.910687-5.668727 3.690039-1.780018 1.778685-2.873362 3.564037-3.693371 5.668059-.793342 2.035354-1.333347 4.361378-1.486682 7.766747-.152668 3.413369-.192669 4.504714-.192669 13.19547 0 8.690761.03867 9.778105.193336 13.191474.156667 3.406702.696007 5.73206 1.486681 7.766747.818009 2.104689 1.911353 3.890041 3.690706 5.668727 1.778018 1.780018 3.56337 2.876029 5.666725 3.693371 2.036021.791341 4.362045 1.330681 7.768081 1.486682 3.413368.155335 4.50338.193336 13.193471.193336 8.691424 0 9.778768-.038 13.192137-.193336 3.406702-.156001 5.734723-.695341 7.770743-1.486682 2.10403-.817342 3.88671-1.913353 5.66473-3.693371 1.78002-1.778686 2.87336-3.564038 3.69337-5.66806.78668-2.035354 1.32668-4.361378 1.48668-7.766747.15334-3.413369.19334-4.50138.19334-13.192141 0-8.690756-.04-9.781435-.19334-13.194803-.16-3.406702-.7-5.73206-1.48668-7.766747-.82001-2.104689-1.91335-3.890041-3.69337-5.668726-1.78002-1.780019-3.56004-2.873363-5.66673-3.690039-2.04002-.791341-4.366708-1.33068-7.773409-1.486681-3.41337-.155336-4.500048-.193336-13.193472-.193336zm-2.870696 5.766726c.852009-.0013 1.802686 0 2.870696 0 8.544089 0 9.556767.03067 12.930802.184003 3.120032.142668 4.813379.664006 5.941399 1.102011 1.49335.580006 2.55802 1.273347 3.67737 2.393359 1.12001 1.120011 1.81335 2.186689 2.39469 3.680038.43801 1.126678.96001 2.820029 1.10201 5.940061.15334 3.373369.18667 4.386713.18667 12.926801 0 8.540092-.0333 9.553436-.18667 12.926805-.14267 3.120032-.664 4.813382-1.10201 5.940061-.58001 1.493349-1.27468 2.556693-2.39469 3.676039-1.12001 1.120011-2.18336 1.813352-3.67737 2.393358-1.12668.440004-2.821367.96001-5.941399 1.102678-3.373369.153334-4.386713.186669-12.930802.186669-8.544755 0-9.557433-.03334-12.930801-.186669-3.120032-.144002-4.813383-.665341-5.942061-1.103345-1.493349-.580006-2.560027-1.273347-3.680039-2.393358-1.120011-1.120012-1.813351-2.184023-2.394691-3.678038-.438005-1.126678-.960011-2.82003-1.102011-5.940062-.153335-3.373369-.184003-4.386713-.184003-12.932137 0-8.545423.03067-9.553433.184003-12.926802.142667-3.120032.664006-4.813384 1.102011-5.941394.580006-1.493349 1.27468-2.560027 2.394691-3.680039 1.120012-1.120012 2.18669-1.813352 3.680039-2.394691 1.128011-.440006 2.822029-.960011 5.942061-1.103345 2.952031-.133336 4.096043-.173336 10.060105-.180002zm19.952207 5.313389c-2.120021 0-3.840039 1.718018-3.840039 3.838707 0 2.120022 1.720018 3.84004 3.840039 3.84004 2.12002 0 3.84004-1.720018 3.84004-3.84004s-1.72002-3.84004-3.84004-3.84004zm-17.081511 4.486714c-9.075427 0-16.433503 7.358077-16.433503 16.433503 0 9.075431 7.358076 16.430174 16.433503 16.430174 9.075428 0 16.430838-7.354743 16.430838-16.430174 0-9.075426-7.356076-16.433503-16.431504-16.433503zm0 5.766726c5.890729 0 10.666778 4.775383 10.666778 10.666777 0 5.890732-4.776049 10.666782-10.666778 10.666782-5.891394 0-10.666777-4.77605-10.666777-10.666782 0-5.891394 4.775383-10.666777 10.666777-10.666777z" fill="none" opacity=".1" stroke="#000" stroke-width="2"/><path d="m47.482999 17c-8.690756 0-9.781435.038-13.194803.193336-3.406702.156001-5.73206.69534-7.766747 1.486681-2.104689.817343-3.890041 1.910687-5.668727 3.690039-1.780018 1.778685-2.873362 3.564037-3.693371 5.668059-.793342 2.035354-1.333347 4.361378-1.486682 7.766747-.152668 3.413369-.192669 4.504714-.192669 13.19547 0 8.690761.03867 9.778105.193336 13.191474.156667 3.406702.696007 5.73206 1.486681 7.766747.818009 2.104689 1.911353 3.890041 3.690706 5.66873 1.778018 1.78002 3.56337 2.87603 5.666725 3.69337 2.036021.79134 4.362045 1.33068 7.768081 1.48668 3.413368.15534 4.50338.19334 13.193471.19334 8.691424 0 9.778768-.038 13.192137-.19334 3.406702-.156 5.734723-.69534 7.770743-1.48668 2.10403-.81734 3.88671-1.91335 5.66473-3.69337 1.78002-1.778689 2.87336-3.564041 3.69337-5.668063.78668-2.035354 1.32668-4.361378 1.48668-7.766747.15334-3.413369.19334-4.50138.19334-13.192141 0-8.690756-.04-9.781435-.19334-13.194803-.16-3.406702-.7-5.73206-1.48668-7.766747-.82001-2.104689-1.91335-3.890041-3.69337-5.668726-1.78002-1.780019-3.56004-2.873363-5.66673-3.690039-2.04002-.791341-4.366708-1.33068-7.773409-1.486681-3.41337-.155336-4.500048-.193336-13.193472-.193336zm-2.870696 5.766726c.852009-.0013 1.802686 0 2.870696 0 8.544089 0 9.556767.03067 12.930802.184003 3.120032.142668 4.813379.664006 5.941399 1.102011 1.49335.580006 2.55802 1.273347 3.67737 2.393359 1.12001 1.120011 1.81335 2.186689 2.39469 3.680038.43801 1.126678.96001 2.820029 1.10201 5.940061.15334 3.373369.18667 4.386713.18667 12.926801 0 8.540092-.0333 9.553436-.18667 12.926805-.14267 3.120032-.664 4.813382-1.10201 5.940061-.58001 1.493349-1.27468 2.556693-2.39469 3.676039-1.12001 1.120011-2.18336 1.813352-3.67737 2.393358-1.12668.440001-2.821367.960011-5.941399 1.102681-3.373369.15333-4.386713.18667-12.930802.18667-8.544755 0-9.557433-.0333-12.930801-.18667-3.120032-.144-4.813383-.66534-5.942061-1.103348-1.493349-.580006-2.560027-1.273347-3.680039-2.393358-1.120011-1.120012-1.813351-2.184023-2.394691-3.678038-.438005-1.126678-.960011-2.82003-1.102011-5.940062-.153335-3.373369-.184003-4.386713-.184003-12.932137 0-8.545423.03067-9.553433.184003-12.926802.142667-3.120032.664006-4.813384 1.102011-5.941394.580006-1.493349 1.27468-2.560027 2.394691-3.680039 1.120012-1.120012 2.18669-1.813352 3.680039-2.394691 1.128011-.440006 2.822029-.960011 5.942061-1.103345 2.952031-.133336 4.096043-.173336 10.060105-.180002zm19.952207 5.313389c-2.120021 0-3.840039 1.718018-3.840039 3.838707 0 2.120022 1.720018 3.84004 3.840039 3.84004 2.12002 0 3.84004-1.720018 3.84004-3.84004s-1.72002-3.84004-3.84004-3.84004zm-17.081511 4.486714c-9.075427 0-16.433503 7.358077-16.433503 16.433503 0 9.075431 7.358076 16.430174 16.433503 16.430174 9.075428 0 16.430838-7.354743 16.430838-16.430174 0-9.075426-7.356076-16.433503-16.431504-16.433503zm0 5.766726c5.890729 0 10.666778 4.775383 10.666778 10.666777 0 5.890732-4.776049 10.666782-10.666778 10.666782-5.891394 0-10.666777-4.77605-10.666777-10.666782 0-5.891394 4.775383-10.666777 10.666777-10.666777z" fill="none" opacity=".1" stroke="#000" stroke-width="4"/><path d="m47.472999 16.998667c-8.690756 0-9.781435.038-13.194803.193336-3.406702.156001-5.73206.69534-7.766747 1.486681-2.104689.817343-3.890041 1.910687-5.668727 3.690039-1.780018 1.778685-2.873362 3.564037-3.693371 5.668059-.793342 2.035354-1.333347 4.361378-1.486682 7.766747-.152668 3.413369-.192669 4.504714-.192669 13.19547 0 8.690761.03867 9.778105.193336 13.191474.156667 3.406702.696007 5.73206 1.486681 7.766747.818009 2.104689 1.911353 3.890041 3.690706 5.668727 1.778018 1.780018 3.56337 2.876029 5.666725 3.693371 2.036021.791341 4.362045 1.330681 7.768081 1.486682 3.413368.155335 4.50338.193336 13.193471.193336 8.691424 0 9.778768-.038 13.192137-.193336 3.406702-.156001 5.734726-.695341 7.770747-1.486682 2.104022-.817342 3.886708-1.913353 5.664727-3.693371 1.780018-1.778686 2.873363-3.564038 3.693372-5.66806.786675-2.035354 1.32668-4.361378 1.486681-7.766747.153335-3.413369.193336-4.50138.193336-13.192141 0-8.690756-.04-9.781435-.193336-13.194803-.160001-3.406702-.700006-5.73206-1.486681-7.766747-.820009-2.104689-1.913354-3.890041-3.693372-5.668726-1.780019-1.780019-3.560038-2.873363-5.666727-3.690039-2.04002-.791341-4.366712-1.33068-7.773413-1.486681-3.41337-.155336-4.500048-.193336-13.193472-.193336zm-2.870696 5.766726c.852009-.0013 1.802686 0 2.870696 0 8.544089 0 9.556767.03067 12.930802.184003 3.120032.142668 4.813383.664006 5.941395 1.102011 1.493349.580006 2.558027 1.273347 3.677371 2.393359 1.120013 1.120011 1.813353 2.186689 2.394693 3.680038.438005 1.126678.960009 2.820029 1.102011 5.940061.153335 3.373369.186668 4.386713.186668 12.926801 0 8.540092-.03334 9.553436-.186668 12.926805-.142668 3.120032-.664006 4.813382-1.102011 5.940061-.580006 1.493349-1.27468 2.556693-2.394693 3.676039-1.120011 1.120011-2.183355 1.813352-3.677371 2.393358-1.126678.440004-2.821363.96001-5.941395 1.102678-3.373369.153334-4.386713.186669-12.930802.186669-8.544755 0-9.557433-.03334-12.930801-.186669-3.120032-.144002-4.813383-.665341-5.942061-1.103345-1.493349-.580006-2.560027-1.273347-3.680039-2.393358-1.120011-1.120012-1.813351-2.184023-2.394691-3.678038-.438005-1.126678-.960011-2.82003-1.102011-5.940062-.153335-3.373369-.184003-4.386713-.184003-12.932137 0-8.545423.03067-9.553433.184003-12.926802.142667-3.120032.664006-4.813384 1.102011-5.941394.580006-1.493349 1.27468-2.560027 2.394691-3.680039 1.120012-1.120012 2.18669-1.813352 3.680039-2.394691 1.128011-.440006 2.822029-.960011 5.942061-1.103345 2.952031-.133336 4.096043-.173336 10.060105-.180002zm19.952208 5.313389c-2.120022 0-3.84004 1.718018-3.84004 3.838707 0 2.120022 1.720018 3.84004 3.84004 3.84004s3.84004-1.720018 3.84004-3.84004-1.720018-3.84004-3.84004-3.84004zm-17.081512 4.486714c-9.075427 0-16.433503 7.358077-16.433503 16.433503 0 9.075431 7.358076 16.430174 16.433503 16.430174 9.075428 0 16.430838-7.354743 16.430838-16.430174 0-9.075426-7.356076-16.433503-16.431504-16.433503zm0 5.766726c5.890729 0 10.666778 4.775383 10.666778 10.666777 0 5.890732-4.776049 10.666782-10.666778 10.666782-5.891394 0-10.666777-4.77605-10.666777-10.666782 0-5.891394 4.775383-10.666777 10.666777-10.666777z" fill="#fff" stroke-width=".666673"/></g></svg>