<svg enable-background="new 0 0 128 128" viewBox="0 0 128 128" xmlns="http://www.w3.org/2000/svg" xmlns:xlink="http://www.w3.org/1999/xlink"><linearGradient id="a" gradientUnits="userSpaceOnUse" x1="64" x2="64" y1="124" y2="4"><stop offset=".0029098" stop-color="#212121"/><stop offset="1" stop-color="#4d4d4d"/></linearGradient><linearGradient id="b" gradientUnits="userSpaceOnUse" x1="64.007" x2="64.007" y1="108.03" y2="19.974"><stop offset=".0085898" stop-color="#9e9e9e"/><stop offset=".9987" stop-color="#616161"/></linearGradient><path d="m87.41 124h-46.82c-4.71 0-8.56-3.85-8.56-8.56v-102.88c0-4.71 3.85-8.56 8.56-8.56h46.81c4.71 0 8.56 3.85 8.56 8.56v102.87c.01 4.72-3.84 8.57-8.55 8.57z" fill="url(#a)"/><path d="m87.41 7c3.07 0 5.56 2.5 5.56 5.56v102.87c0 3.07-2.5 5.56-5.56 5.56h-46.82c-3.07 0-5.56-2.5-5.56-5.56v-102.87c0-3.07 2.5-5.56 5.56-5.56zm0-3h-46.82c-4.71 0-8.56 3.85-8.56 8.56v102.87c0 4.71 3.85 8.56 8.56 8.56h46.81c4.71 0 8.56-3.85 8.56-8.56v-102.87c.01-4.71-3.84-8.56-8.55-8.56z" fill="#eee" opacity=".2"/><path d="m86.6 108.03h-45.18c-.75 0-1.36-.61-1.36-1.36v-85.33c0-.75.61-1.36 1.36-1.36h45.18c.75 0 1.36.61 1.36 1.36v85.33c0 .74-.61 1.36-1.36 1.36z" fill="url(#b)"/><path d="m73.56 14.65h-19.12c-.69 0-1.25-.56-1.25-1.25s.56-1.25 1.25-1.25h19.12c.69 0 1.25.56 1.25 1.25s-.56 1.25-1.25 1.25z" fill="#212121"/><path d="m73.56 115.85h-19.12c-.69 0-1.25-.56-1.25-1.25s.56-1.25 1.25-1.25h19.12c.69 0 1.25.56 1.25 1.25 0 .68-.56 1.25-1.25 1.25z"/><path d="m83.39 31.98h-38.63c-.38 0-.68-.3-.68-.68v-6.57c0-.38.3-.68.68-.68h38.62c.38 0 .68.3.68.68v6.57c.01.37-.3.68-.67.68z" fill="#f5f5f5"/><path d="m49.78 84h-3.58c-1.21 0-2.2-.98-2.2-2.2v-3.58c0-1.21.98-2.2 2.2-2.2h3.58c1.21 0 2.2.98 2.2 2.2v3.58c0 1.22-.98 2.2-2.2 2.2z" fill="#159e5c"/><path d="m49.78 96h-3.58c-1.21 0-2.2-.98-2.2-2.2v-3.58c0-1.21.98-2.2 2.2-2.2h3.58c1.21 0 2.2.98 2.2 2.2v3.58c0 1.22-.98 2.2-2.2 2.2z" fill="#fb5352"/><path d="m60.43 96h-3.58c-1.21 0-2.2-.98-2.2-2.2v-3.58c0-1.21.98-2.2 2.2-2.2h3.58c1.21 0 2.2.98 2.2 2.2v3.58c0 1.22-.99 2.2-2.2 2.2z" fill="#4587f5"/><path d="m71.39 96h-3.59c-1.21 0-2.2-.98-2.2-2.2v-3.58c0-1.21.98-2.2 2.2-2.2h3.58c1.21 0 2.2.98 2.2 2.2v3.58c.01 1.22-.98 2.2-2.19 2.2z" fill="#159e5c"/><path d="m81.72 96h-3.58c-1.21 0-2.2-.98-2.2-2.2v-3.58c0-1.21.98-2.2 2.2-2.2h3.58c1.21 0 2.2.98 2.2 2.2v3.58c0 1.22-.99 2.2-2.2 2.2z" fill="#fecd41"/><path d="m60.43 84h-3.58c-1.21 0-2.2-.98-2.2-2.2v-3.58c0-1.21.98-2.2 2.2-2.2h3.58c1.21 0 2.2.98 2.2 2.2v3.58c0 1.22-.99 2.2-2.2 2.2z" fill="#fecd41"/><path d="m71.39 84h-3.59c-1.21 0-2.2-.98-2.2-2.2v-3.58c0-1.21.98-2.2 2.2-2.2h3.58c1.21 0 2.2.98 2.2 2.2v3.58c.01 1.22-.98 2.2-2.19 2.2z" fill="#ff6d00"/><path d="m81.72 84h-3.58c-1.21 0-2.2-.98-2.2-2.2v-3.58c0-1.21.98-2.2 2.2-2.2h3.58c1.21 0 2.2.98 2.2 2.2v3.58c0 1.22-.99 2.2-2.2 2.2z" fill="#de493c"/><g fill="#fff"><path d="m64 102.5c.83 0 1.5.67 1.5 1.5s-.67 1.5-1.5 1.5-1.5-.67-1.5-1.5.67-1.5 1.5-1.5m0-.5c-1.1 0-2 .9-2 2s.9 2 2 2 2-.9 2-2-.9-2-2-2z"/><path d="m79.15 102.5c.15 0 .28.13.28.28v2.44c0 .15-.13.28-.28.28h-2.44c-.15 0-.28-.13-.28-.28v-2.44c0-.15.13-.28.28-.28zm0-.5h-2.44c-.43 0-.78.35-.78.78v2.44c0 .43.35.78.78.78h2.44c.43 0 .78-.35.78-.78v-2.44c0-.43-.35-.78-.78-.78z"/><path d="m51.48 102.72v2.56l-2.55-1.28zm.35-.72c-.02 0-.04 0-.06.02l-3.7 1.86c-.11.05-.11.2 0 .26l3.7 1.86c.02.01.04.02.06.02.08 0 .14-.06.14-.14v-3.74c.01-.08-.06-.14-.14-.14z"/></g></svg>